<?xml version="1.0" encoding="utf-8"?>
<!-- Generator: Adobe Illustrator 25.1.0, SVG Export Plug-In . SVG Version: 6.00 Build 0)  -->
<svg version="1.1" id="Layer_1" xmlns="http://www.w3.org/2000/svg" xmlns:xlink="http://www.w3.org/1999/xlink" x="0px" y="0px"
	 viewBox="0 0 234.5 74.3" style="enable-background:new 0 0 234.5 74.3;" xml:space="preserve">
<style type="text/css">
	.st0{fill:#FFFFFF;}
</style>
<polygon class="st0" points="0,15.2 8.5,15.2 8.5,36 27.8,15.2 37.7,15.2 19.9,34.1 38.7,59.1 28.9,59.1 14.4,39.9 8.5,46.1 
	8.5,59.1 0,59.1 "/>
<path class="st0" d="M53.3,15.2h18.8c10.5,0,16.2,5.1,16.2,13.6c0,6.2-3.2,11.2-9.2,13.3l10.9,17h-9.3l-10.1-16h-8.7v15.9h-8.5V15.2
	z M61.9,22.1v14.3h9.9c5.2,0,7.9-3.2,7.9-7.5s-2.8-6.8-7.9-6.8L61.9,22.1z"/>
<path class="st0" d="M234.5,36.7c-0.1-5-1.2-9.9-3.2-14.4c-3.3-7.7-9.1-14-16.4-17.9c-6-3.3-12.9-4.8-19.7-4.4
	c-5.4,0.3-10.6,1.7-15.4,4.3c-5.2,2.8-9.7,6.7-13.1,11.6c-1.5,2.1-3.1,4.2-4.8,6.1c-2.8,3.4-7.7,4.1-11.4,1.8
	c-2.1-1.3-4.1-2.8-5.9-4.4c-0.6-0.5-1.2-1-1.8-1.4c-5.2-3.9-11.7-5.5-18.2-4.5c-3.3,0.5-6.5,1.7-9.3,3.6c-3.5,2.3-6.3,5.5-8.2,9.2
	c-1.5,2.7-2.3,5.8-2.5,8.9c-0.1,0.6-0.1,1.3-0.1,2c0,4.1,1,8.1,3,11.6c0.8,1.5,1.8,2.9,2.9,4.2c8.7,10,23.8,11,33.8,2.3
	c0.2-0.2,0.4-0.3,0.6-0.5c1.6-1.3,3.2-2.7,4.9-3.9c3.2-2.2,6.6-2.5,10.1-0.4c2.1,1.4,3.9,3.3,5.3,5.5c2.5,3.8,5.5,7.3,9,10.2
	c16.2,12.8,39.6,10.1,52.4-6.1C231.7,53.5,234.5,45.2,234.5,36.7L234.5,36.7z"/>
</svg>
