<?xml version="1.0" encoding="utf-8"?>
<!-- Generator: Adobe Illustrator 25.1.0, SVG Export Plug-In . SVG Version: 6.00 Build 0)  -->
<svg version="1.1" id="Layer_1" xmlns="http://www.w3.org/2000/svg" xmlns:xlink="http://www.w3.org/1999/xlink" x="0px" y="0px"
	 viewBox="0 0 966 316" style="enable-background:new 0 0 966 316;" xml:space="preserve">
<style type="text/css">
	.st0{fill:#FFFFFF;}
</style>
<path class="st0" d="M464.4,132.9c-28.3,0-36.6,16.8-36.6,17l-0.6,1.3l-0.8-1.2c-7.6-11.5-18.5-17.1-36.8-17.1
	c-28.3,0-36.6,16.8-36.6,17l-0.6,1.3l-9.4-15.4h-20V248h30.8v-55.6c0-21.7,7.4-31.8,23.4-31.8c14.1,0,20.7,8.4,20.7,26.4v61h30.7
	v-56.3c0-21.2,7.3-31.1,22.9-31.1c9.1,0,21.2,2.8,21.2,26.7V248h30.8v-69.8C503.5,146.9,491.2,132.9,464.4,132.9z M273.1,191.5
	c0,14.6-4.5,24-11.6,28.5c-3.5,2.2-9,3.3-14.2,3.3c-17.7,0-22.1-10.1-22.1-26.7v-60.7h-30.8v69.8c0,31.3,15.6,45.3,43.2,45.3l0,0
	c29.4,0,37-18.3,37-18.3L284,248h19.8V135.9h-30.7L273.1,191.5L273.1,191.5z M749.7,132.9c-18.1,0-33.6,6-44.7,17.5
	c-10.5,10.7-16.2,25.5-16.2,41.5s5.8,30.8,16.2,41.5c11.2,11.4,26.6,17.5,44.7,17.5c36,0,61.2-24.2,61.2-59S785.7,132.9,749.7,132.9
	L749.7,132.9z M749.6,224.8c-17.5,0-30.2-13.8-30.2-32.9c0-18.7,13-32.9,30.2-32.9c17.5,0,30.6,14.1,30.6,32.9
	C780.2,211,767.3,224.8,749.6,224.8z M106,90.8H74V248h109.7v-32H106V90.8z M519,248h32V135.9h-32V248z M852.5,151.2l-9.5-15.4
	h-19.8V248H854v-42.3c0-14.6,2.7-23.7,11.4-31.6c11.2-10,26.5-9.8,26.5-9.8v-31.4C859,132.9,852.5,151.2,852.5,151.2L852.5,151.2z
	 M512.2,90.8l22.8,22.8l22.8-22.8L535,68L512.2,90.8z M634.7,133L634.7,133c-29.4,0-37,18.3-37,18.3l-9.4-15.4h-19.8V248h30.8v-55.6
	c0-14.6,4.5-24,11.6-28.5c3.5-2.2,9-3.3,14.3-3.3c17.7,0,22.1,10.1,22.1,26.7V248h30.8v-69.8C677.9,146.9,662.4,133,634.7,133z"/>
</svg>
