<?xml version="1.0" encoding="utf-8"?>
<!-- Generator: Adobe Illustrator 25.1.0, SVG Export Plug-In . SVG Version: 6.00 Build 0)  -->
<svg version="1.1" id="Lager_1" xmlns="http://www.w3.org/2000/svg" xmlns:xlink="http://www.w3.org/1999/xlink" x="0px" y="0px"
	 viewBox="0 0 664 382" style="enable-background:new 0 0 664 382;" xml:space="preserve">
<style type="text/css">
	.st0{fill:#FFFFFF;}
</style>
<g>
	<path class="st0" d="M222.1,133.3l-26,19.5c-12.2-10.6-28.1-12.6-36.8-12.6c-8.7,0-18,2.5-19.5,8.8c-1.4,6.2,4.2,11,14.2,13.6
		c11.1,3,21.4,5.7,37.2,10.1c23.4,6.7,39.3,16.8,39.3,40.2c0,32.2-28.7,49-67.1,49s-64.6-20-72.4-29.4l27.4-20.5
		c19.3,16.8,32.7,19.1,43.9,19.1c12.9,0,24.9-2.8,26.4-10.1c1.2-5.8-3.5-10.4-14.5-13.1c-12.4-2.8-22.8-5.1-34.5-8.3
		c-31.7-8.3-40.5-26.7-40.5-43.2c0-22.8,21.2-46.2,60-46.2C198.9,110.4,222.1,133.3,222.1,133.3 M387.7,112.7H271.8v144.7h118V224
		h-77.3v-23.2h53.3V169h-53.3v-23.2h75.2V112.7z M241.9,290.9h9V79.3h-9V290.9z M405.1,290.9h9V79.3h-9V290.9z M435,257.5h93.1
		c24.9,0,44.9-15,44.9-38.9c0-18.8-12.2-31.1-29.4-36.6c-0.5-0.2-1.1-0.2-1.6-0.2c0.5,0,1.1-0.2,1.6-0.4
		c9.9-3.9,20.7-14.3,20.7-31.9c0-22.5-19.8-36.6-44.2-36.6H435L435,257.5L435,257.5z M475.9,142.8h32.6c7.4,0,13.4,5.8,13.4,12.7
		c0,6.7-6,12.7-13.4,12.7h-32.6V142.8z M515.5,225.3h-39.8v-26.4h39.8c7.3,0.4,12.9,6.4,12.7,13.6
		C528.1,219.6,522.4,225.1,515.5,225.3L515.5,225.3z"/>
</g>
</svg>
