<?xml version="1.0" encoding="utf-8"?>
<!-- Generator: Adobe Illustrator 25.4.1, SVG Export Plug-In . SVG Version: 6.00 Build 0)  -->
<svg version="1.1" id="Layer_1" xmlns="http://www.w3.org/2000/svg" xmlns:xlink="http://www.w3.org/1999/xlink" x="0px" y="0px"
	 viewBox="0 0 527 218" style="enable-background:new 0 0 527 218;" xml:space="preserve">
<style type="text/css">
	.st0{fill:#FFFFFF;}
</style>
<g id="Artboard">
	<path id="Path" class="st0" d="M157.4,86.1h-31.2c-1.3-0.1-2.4,0.9-2.5,2.2c0,0,0,0,0,0.1v1.5c0,1.3,1.1,2.3,2.4,2.3H137
		c0.7,0,1.3,0.6,1.3,1.3v35.9c0,1.4,1.2,2.6,2.6,2.6h1.7c1.4,0,2.6-1.1,2.6-2.6l0,0V93.5c0-0.7,0.6-1.3,1.4-1.3h10.9
		c1.3,0,2.4-1,2.4-2.3v-1.4C159.9,87,158.7,86,157.4,86.1L157.4,86.1z"/>
	<path id="Path-2" class="st0" d="M254.8,88.6c0-1.4-1.2-2.6-2.6-2.5l0,0h-1.6c-1.4,0-2.6,1.1-2.6,2.5l0,0V114
		c0,6.1-5.1,11.1-11.2,11c-6.1,0-11.1-5.1-11-11.2V88.4c0-1.4-1.2-2.6-2.6-2.5l0,0h-1.6c-1.4,0-2.6,1.1-2.6,2.5l0,0v25.8
		c0,10,8.1,18,18,18s18-8.1,18-18L254.8,88.6z"/>
	<path id="Path-3" class="st0" d="M344.5,125.8h-15.7c-0.7,0-1.3-0.6-1.4-1.3l0,0V88.6c0-1.4-1.2-2.6-2.6-2.6h-1.7
		c-1.4,0-2.6,1.1-2.6,2.6v40.8c0,1.4,1.1,2.5,2.5,2.5h21.4c1.3,0,2.3-1,2.3-2.3l0,0v-1.5c0.2-1.1-0.6-2.2-1.8-2.4
		C344.8,125.8,344.7,125.8,344.5,125.8z"/>
	<path id="Shape" class="st0" d="M196.2,113.4L196.2,113.4c5.6-2.1,9.4-7.4,9.5-13.4c0-7.7-6.2-14-13.9-14c-0.1,0-0.1,0-0.2,0h-16.1
		c-1.4,0-2.5,1.2-2.5,2.6v1.2l0,0v39.4c0,1.4,1.1,2.6,2.5,2.6h1.6c1.4,0,2.5-1.2,2.5-2.6v-14c0-0.7,0.6-1.3,1.3-1.3l0,0h8
		c0.3,0,0.5,0.1,0.7,0.4l8.3,16.3c0.7,1.2,2.2,1.7,3.5,1l1.4-0.8c1.2-0.7,1.7-2.3,1-3.5L196.2,113.4z M191.2,108.3H181
		c-0.7,0-1.3-0.5-1.3-1.2V94.7l0,0V94c0-0.7,0.5-1.3,1.2-1.3h10c4.4-0.1,8,3.4,8,7.8c0.1,4.4-3.4,8-7.8,8v-0.2H191.2z"/>
	<path id="Path-4" class="st0" d="M301.7,125.9h-18.8c-0.7,0-1.3-0.6-1.4-1.3l0,0v-11.5c0-0.7,0.6-1.3,1.3-1.3l0,0h15.6
		c1.3,0,2.4-1,2.4-2.3V108c0-1.3-1.1-2.3-2.4-2.3h-15.6c-0.7,0-1.3-0.6-1.4-1.3l0,0V93.6c0-0.7,0.6-1.3,1.3-1.3l0,0h18.8
		c1.3,0,2.4-1,2.4-2.3l0,0v-1.5c0-1.3-1.1-2.4-2.4-2.3l0,0H277c-1.4-0.1-2.5,1-2.6,2.4v0.1v40.9c0,1.4,1.2,2.5,2.6,2.5h24.5
		c1.3,0,2.3-1,2.3-2.3v-1.5C304,126.9,303,125.9,301.7,125.9L301.7,125.9z"/>
	<path id="Path-5" class="st0" d="M475.4,125.9h-18.7c-0.7,0-1.3-0.6-1.4-1.3v-1l0,0v-10.4c0-0.7,0.6-1.3,1.4-1.3h15.5
		c1.3,0,2.4-1,2.4-2.3l0,0v-1.5c0-1.3-1.1-2.3-2.4-2.3h-15.5c-0.7,0-1.3-0.6-1.4-1.3l0,0v-9.9l0,0v-0.8c0-0.7,0.5-1.3,1.3-1.3h0.1
		h18.8c1.3,0,2.4-1,2.4-2.3v-1.5c0-1.3-1.1-2.4-2.4-2.3l0,0H451c-1.4,0-2.5,1.1-2.6,2.4c0,0,0,0,0,0.1v40.9c0,1.4,1.2,2.5,2.6,2.5
		l0,0h24.5c1.3,0,2.3-1,2.3-2.3v-1.5c0-1.3-1-2.3-2.3-2.4C475.5,125.9,475.5,125.9,475.4,125.9z"/>
	<path id="Shape-2" class="st0" d="M399,127.9l-19.6-41.2c-0.3-0.4-0.7-0.7-1.1-0.7h-0.8c-0.5,0-0.9,0.3-1.1,0.7l-19.7,41.2
		c-0.5,1.2,0,2.6,1.2,3.2l0,0l1.5,0.6c1.2,0.5,2.7,0,3.3-1.1l3.9-8.2c0.1-0.1,0.3-0.2,0.5-0.2h21.3c0.3,0,0.5,0.2,0.7,0.4l3.9,8.1
		c0.6,1.2,2.1,1.7,3.3,1.2l1.5-0.6C398.9,130.6,399.5,129.1,399,127.9z M385.2,116.5h-14.8c-0.4,0-0.7-0.3-0.7-0.7
		c0-0.1,0-0.2,0-0.2l7.8-16.6c0.1,0,0.2,0,0.3,0l0,0c0.1,0,0.2,0,0.2,0l0,0l7.9,16.6c0.1,0.3,0,0.7-0.3,0.8l0,0
		C385.4,116.4,385.3,116.4,385.2,116.5L385.2,116.5z"/>
	<path id="Path-6" class="st0" d="M434.6,87.8l-1.6-1.2c-1.1-0.9-2.7-0.6-3.6,0.5l0,0L417.7,103c-0.2,0.2-0.5,0.2-0.6,0l0,0
		l-11.8-15.9c-0.9-1.1-2.4-1.3-3.6-0.5l-1.6,1.2c-0.8,0.9-0.8,2.3,0,3.2l13.9,19v19.5c0,1.4,1.2,2.6,2.6,2.6h1.7
		c1.4,0,2.6-1.1,2.6-2.6v-19.6L434.6,91C435.5,90.1,435.5,88.6,434.6,87.8z"/>
	<path id="Shape-3" class="st0" d="M517.5,113.5L517.5,113.5L517.5,113.5c5.6-2.1,9.4-7.4,9.5-13.4c0-7.7-6.2-14-14-14l0,0h-16.2
		c-1.4,0-2.5,1.2-2.5,2.6v40.7c0,1.4,1.1,2.6,2.5,2.6h1.5c1.4,0,2.5-1.2,2.5-2.6v-14.1c0-0.7,0.6-1.3,1.3-1.3l0,0h8
		c0.3,0,0.6,0.1,0.7,0.4l8.3,16.3c0.7,1.2,2.2,1.7,3.4,1l0,0l1.4-0.8c1.2-0.7,1.7-2.3,1-3.5L517.5,113.5z M512.4,108.4h-10.2
		c-0.7,0-1.3-0.5-1.3-1.2V93.8c0-0.7,0.6-1.3,1.3-1.3l0,0h10c4.4,0.3,7.7,4.2,7.3,8.6C519.3,104.9,516.2,108,512.4,108.4
		L512.4,108.4z"/>
	<g id="Logomark">
		<path id="Shape-4" class="st0" d="M5.2,134.6l40.3,22.5c1.9,1.4,4.5,1.4,6.3,0l42.8-24c1.5-1,2.5-1.7,2.5-3.4
			c-0.1-1.3-0.9-2.4-2.1-3l-11.5-7.5l10.9-6.2c2.1-1,3.5-3,3.7-5.2V91.1c0.3-2.7-1.2-5.3-3.7-6.3l-42-23.6c-2.4-1.7-5.5-1.7-7.8,0
			l-42,24c-1.5,0.8-2.5,2.3-2.5,4c0,2,2.2,3.6,2.5,3.8l10.9,6.3L2,106.1c-1.1,0.7-1.8,1.9-1.9,3.2l0,0c0,0.9,0,16.1,0,16.1
			C-0.5,129.3,1.6,133.1,5.2,134.6z M89.7,129.9l-41,22.5L9.1,130.6l12.4-6.9L47.2,138c0.9,0.5,2,0.5,2.9,0l27.8-15.9L89.7,129.9z
			 M93.1,106l-11-6.6l11-6.3V106z M51.8,67.3l37.6,21.6L77,96.3L51.7,81.2L51.8,67.3z M48.7,85.9l22.9,13.6l-22.9,12.9l0,0
			L25.3,99.2L48.7,85.9L48.7,85.9z M7.2,89l38.5-21.8v13.9L19,96L7.2,89z M19.4,102.6l27.9,15.6c0.9,0.5,2,0.5,3,0L77,102.6
			l12.1,7.2l-40.3,22.5l-41-23.1L19.4,102.6z M5.4,114.4l10.8,6l-10.8,6.1C5.4,126.5,5.4,114.4,5.4,114.4z"/>
	</g>
</g>
</svg>
