<?xml version="1.0" encoding="utf-8"?>
<!-- Generator: Adobe Illustrator 25.1.0, SVG Export Plug-In . SVG Version: 6.00 Build 0)  -->
<svg version="1.1" id="Layer_1" xmlns="http://www.w3.org/2000/svg" xmlns:xlink="http://www.w3.org/1999/xlink" x="0px" y="0px"
	 viewBox="0 0 1236 534" style="enable-background:new 0 0 1236 534;" xml:space="preserve">
<style type="text/css">
	.st0{fill:#FFFFFF;}
	.st1{fill-rule:evenodd;clip-rule:evenodd;fill:#FFFFFF;}
</style>
<circle class="st0" cx="118.1" cy="93.8" r="32.7"/>
<circle class="st0" cx="1117.2" cy="351.7" r="32.7"/>
<path class="st1" d="M601.2,359c0,14.5,12,26.9,26.9,26.9c13.4,0,24-9.5,26.5-21.5c19,12.9,42.9,21.5,67.8,21.5
	c67.3,0,121.1-56.9,121.1-124.2c0-68.3-53.9-125.1-121.1-125.1c-24.5,0-48.3,8-66.8,20.9V63.8c0-14.5-12-26.9-27.4-26.9
	c-15,0-26.9,12.5-26.9,26.9v197.5v0.5L601.2,359L601.2,359z M675.5,211.4c12.5-12.9,28.4-20.4,46.9-20.4c17.9,0,34.4,7.5,46.9,20.4
	c12.5,12.5,19.9,30.4,19.9,50.3c0,19-7.5,36.9-19.9,49.4c-12.5,12.9-29,20.4-46.9,20.4c-18.4,0-34.4-7.5-46.9-20.4
	c-12.5-12.5-19.9-30.4-19.9-49.4C655.6,241.8,663.1,223.9,675.5,211.4z M1001,213.5c-11.1-8.4-26-11.5-38.4-11.5
	c-19.3,0.1-32.7,7.8-42.1,18.7c-4,4.7-7.6,10.3-10.3,16.2h107C1013.5,225.3,1007.3,218.2,1001,213.5z M903.2,286.9h142.3
	c13.8,0,25-11.2,25-25c0-41.5-15.9-70.5-39.6-88.3c-22.5-16.9-49.2-21.6-68.7-21.5c-34.6,0.2-61.4,14.8-79.7,36
	c-17.8,20.7-27.1,46.8-30.1,70.8c-0.5,4.6-0.9,9.1-0.9,13.7c0,71.3,60.8,112.9,109.6,115c29,1.3,51-4.9,67.4-14.5
	c16.3-9.5,25.4-21.3,30.2-28.3c7.8-11.4,4.8-27-6.6-34.7c-11.4-7.8-27-4.8-34.7,6.6c-2.5,3.7-6.5,9-14,13.3
	c-7.2,4.2-19.6,8.6-40.1,7.8C939.3,336.7,910.2,317.6,903.2,286.9z M383.6,74.7c5.4-12.7-0.5-27.4-13.3-32.7
	c-12.7-5.4-27.4,0.5-32.7,13.3L235,296.9l-61.8-143.6c-5.4-12.7-20.2-18.5-32.8-13.1c-12.7,5.4-18.5,20.2-13.1,32.8l84.9,197.3
	c4,9.2,13,15.2,23,15.1c10,0,19-6,22.9-15.3L383.6,74.7z M387.7,151.6c13.8,0,25,11.2,25,25v91.8c0,29.7,24.1,53.9,53.9,53.9
	c29.7,0,53.9-24.1,53.9-53.9v-91.8c0-13.8,11.2-25,25-25c13.8,0,25,11.2,25,25v91.8v121c0,60.4-49.8,108.8-110.1,107.2l-2.9-0.1
	c-32-0.9-61.6-16.7-80-42.7c-3.7-4.4-5.9-10-5.9-16.2c0-13.8,11.2-25,25-25c8.4,0,15.9,4.1,20.3,10.5l0.1-0.1
	c9.3,14.2,24.9,22.9,41.9,23.4l2.9,0.1c32.2,0.9,58.9-25,58.9-57.2V357c-15.7,9.6-34.1,15.1-53.9,15.1
	c-57.4,0-103.8-46.4-103.8-103.8v-91.7C362.7,162.8,373.9,151.6,387.7,151.6z"/>
</svg>
